<?xml version="1.0" encoding="UTF-8" standalone="no"?>
<!-- Created with Inkscape (http://www.inkscape.org/) -->

<svg
   xmlns:dc="http://purl.org/dc/elements/1.1/"
   xmlns:cc="http://creativecommons.org/ns#"
   xmlns:rdf="http://www.w3.org/1999/02/22-rdf-syntax-ns#"
   xmlns:svg="http://www.w3.org/2000/svg"
   xmlns="http://www.w3.org/2000/svg"
   xmlns:sodipodi="http://sodipodi.sourceforge.net/DTD/sodipodi-0.dtd"
   xmlns:inkscape="http://www.inkscape.org/namespaces/inkscape"
   width="209.97411mm"
   height="39.373379mm"
   viewBox="0 0 209.97411 39.373379"
   version="1.1"
   id="svg8"
   inkscape:version="0.92.2 5c3e80d, 2017-08-06"
   sodipodi:docname="logo-primary.svg">
  <defs
     id="defs2" />
  <sodipodi:namedview
     id="base"
     pagecolor="#ffffff"
     bordercolor="#666666"
     borderopacity="1.0"
     inkscape:pageopacity="0.0"
     inkscape:pageshadow="2"
     inkscape:zoom="0.45246712"
     inkscape:cx="562.60195"
     inkscape:cy="-52.802869"
     inkscape:document-units="mm"
     inkscape:current-layer="layer1"
     showgrid="false"
     showguides="true"
     inkscape:guide-bbox="true"
     inkscape:window-width="1280"
     inkscape:window-height="755"
     inkscape:window-x="0"
     inkscape:window-y="1"
     inkscape:window-maximized="1"
     fit-margin-top="0"
     fit-margin-left="0"
     fit-margin-right="0"
     fit-margin-bottom="0" />
  <metadata
     id="metadata5">
    <rdf:RDF>
      <cc:Work
         rdf:about="">
        <dc:format>image/svg+xml</dc:format>
        <dc:type
           rdf:resource="http://purl.org/dc/dcmitype/StillImage" />
        <dc:title></dc:title>
      </cc:Work>
    </rdf:RDF>
  </metadata>
  <g
     inkscape:label="Capa 1"
     inkscape:groupmode="layer"
     id="layer1"
     transform="translate(0.54484399,-123.30697)">
    <g
       id="g4566"
       transform="matrix(3.1807696,0,0,3.1807696,-156.11667,-298.40118)">
      <path
         inkscape:connector-curvature="0"
         id="rect14"
         d="m 86.194738,132.58054 v 4.73356 h 0.790649 v -1.61903 h 2.391585 v 1.61903 h 1.185457 v 1.74614 h -1.185457 v 1.46038 c 0,0.35984 0.211894,0.56121 0.497644,0.56121 0.1905,0 0.380754,-0.0528 0.539504,-0.15865 l 0.571539,1.6614 c -0.370416,0.21172 -0.909793,0.30695 -1.47071,0.30695 -1.598083,0 -2.529562,-0.75164 -2.529562,-2.34972 v -1.48157 h -0.790649 v 5.89887 h 28.729002 v -12.37857 z m 18.654162,2.35231 h 2.39158 v 2.52956 c 0.4445,-0.381 1.00546,-0.57154 1.62988,-0.57154 1.3335,0 2.37091,0.77227 2.37091,2.5926 v 3.30213 h -2.3921 v -2.88923 c 0,-0.71967 -0.27508,-0.99477 -0.709,-0.99477 -0.48683,0 -0.89969,0.30702 -0.89969,1.16427 v 2.71973 h -2.39158 z m -10.441226,1.95802 c 1.7145,0 3.185335,1.03726 3.185335,2.99516 0,0.16934 -0.02094,0.39136 -0.03152,0.56069 h -4.021976 c 0.169331,0.4445 0.571603,0.67748 1.16427,0.67748 0.529167,0 0.825643,-0.13748 1.206643,-0.42323 l 1.249021,1.25936 c -0.560917,0.61383 -1.375979,0.9312 -2.529562,0.9312 -2.12725,0 -3.503144,-1.28041 -3.503144,-3.0055 0,-1.75682 1.407686,-2.99516 3.280936,-2.99516 z m 7.041436,0 c 1.40759,0 2.46585,0.6457 2.84685,1.71462 l -1.85208,0.91002 c -0.24342,-0.53975 -0.59236,-0.76222 -1.00511,-0.76222 -0.53975,0 -0.98444,0.38134 -0.98444,1.13274 0,0.762 0.44469,1.14309 0.98444,1.14309 0.41275,0 0.76169,-0.22248 1.00511,-0.76223 l 1.85208,0.91002 c -0.381,1.06892 -1.43926,1.71462 -2.84685,1.71462 -2.000254,0 -3.418401,-1.23808 -3.418401,-3.0055 0,-1.75682 1.418147,-2.99516 3.418401,-2.99516 z m -7.020251,1.62987 c -0.497416,0 -0.836474,0.28573 -0.931724,0.77256 h 1.862936 c -0.09525,-0.48683 -0.444378,-0.77256 -0.931212,-0.77256 z"
         style="fill:#57cdff;fill-opacity:1;stroke-width:0.29382417" />
      <path
         d="m 56.572454,136.89079 c -0.793749,0 -1.471083,0.3175 -1.936749,0.87842 -0.402167,-0.60325 -1.058334,-0.87842 -1.80975,-0.87842 -0.635,0 -1.2065,0.21167 -1.640417,0.64558 v -0.53975 h -2.275417 v 5.78909 h 2.391834 v -2.82575 c 0,-0.77259 0.328083,-1.05834 0.751416,-1.05834 0.402167,0 0.645584,0.27517 0.645584,0.99484 v 2.88925 h 2.391833 v -2.82575 c 0,-0.77259 0.328083,-1.05834 0.751417,-1.05834 0.381,0 0.645583,0.27517 0.645583,0.99484 v 2.88925 h 2.391833 v -3.302 c 0,-1.82034 -0.994833,-2.59292 -2.307167,-2.59292 z"
         style="font-style:normal;font-variant:normal;font-weight:900;font-stretch:normal;font-size:medium;line-height:1.25;font-family:Montserrat;-inkscape-font-specification:'Montserrat Heavy';letter-spacing:0px;word-spacing:0px;fill:#57cdff;fill-opacity:1;stroke:none;stroke-width:0.26458332"
         id="path4524"
         inkscape:connector-curvature="0" />
      <path
         d="m 62.499782,136.89079 c -0.899583,0 -1.926166,0.23283 -2.6035,0.65617 l 0.762,1.57691 c 0.381,-0.28575 0.963083,-0.45508 1.481667,-0.45508 0.677333,0 1.016,0.23283 1.090083,0.67733 h -0.963083 c -1.799167,0 -2.645833,0.62442 -2.645833,1.74625 0,0.99484 0.73025,1.79917 2.148416,1.79917 0.814917,0 1.36525,-0.28575 1.640417,-0.86783 v 0.762 h 2.2225 v -3.1115 c 0,-1.92617 -1.143,-2.78342 -3.132667,-2.78342 z m -0.01058,4.56142 c -0.359834,0 -0.5715,-0.20109 -0.5715,-0.46567 0,-0.3175 0.22225,-0.48683 0.73025,-0.48683 h 0.592666 v 0.40216 c -0.127,0.381 -0.423333,0.55034 -0.751416,0.55034 z"
         style="font-style:normal;font-variant:normal;font-weight:900;font-stretch:normal;font-size:medium;line-height:1.25;font-family:Montserrat;-inkscape-font-specification:'Montserrat Heavy';letter-spacing:0px;word-spacing:0px;fill:#57cdff;fill-opacity:1;stroke:none;stroke-width:0.26458332"
         id="path4526"
         inkscape:connector-curvature="0" />
      <path
         d="m 68.941559,137.62104 v -0.62442 h -2.275416 v 5.78909 h 2.391833 v -2.57175 c 0,-0.92075 0.508,-1.24884 1.227667,-1.24884 0.169333,0 0.3175,0.0106 0.529166,0.0423 v -2.11667 c -0.804333,0 -1.449916,0.24342 -1.87325,0.73025 z"
         style="font-style:normal;font-variant:normal;font-weight:900;font-stretch:normal;font-size:medium;line-height:1.25;font-family:Montserrat;-inkscape-font-specification:'Montserrat Heavy';letter-spacing:0px;word-spacing:0px;fill:#57cdff;fill-opacity:1;stroke:none;stroke-width:0.26458332"
         id="path4528"
         inkscape:connector-curvature="0" />
      <path
         d="m 75.662804,142.78571 h 2.889249 l -2.582333,-3.28084 2.391833,-2.50825 h -2.825749 l -1.661584,1.68275 v -3.7465 h -2.391833 v 7.85284 h 2.391833 v -1.36525 l 0.381,-0.41275 z"
         style="font-style:normal;font-variant:normal;font-weight:900;font-stretch:normal;font-size:medium;line-height:1.25;font-family:Montserrat;-inkscape-font-specification:'Montserrat Heavy';letter-spacing:0px;word-spacing:0px;fill:#57cdff;fill-opacity:1;stroke:none;stroke-width:0.26458332"
         id="path4530"
         inkscape:connector-curvature="0" />
      <path
         d="m 84.917928,139.88587 c 0,-1.95791 -1.471083,-2.99508 -3.185583,-2.99508 -1.87325,0 -3.280834,1.23825 -3.280834,2.99508 0,1.72509 1.375834,3.00567 3.503084,3.00567 1.153583,0 1.9685,-0.3175 2.529416,-0.93133 l -1.248833,-1.25942 c -0.381,0.28575 -0.677333,0.42333 -1.2065,0.42333 -0.592667,0 -0.994833,-0.23283 -1.164167,-0.67733 h 4.021667 c 0.01058,-0.16933 0.03175,-0.39158 0.03175,-0.56092 z m -3.164417,-1.36525 c 0.486834,0 0.836084,0.28575 0.931334,0.77259 h -1.862667 c 0.09525,-0.48684 0.433917,-0.77259 0.931333,-0.77259 z"
         style="font-style:normal;font-variant:normal;font-weight:900;font-stretch:normal;font-size:medium;line-height:1.25;font-family:Montserrat;-inkscape-font-specification:'Montserrat Heavy';letter-spacing:0px;word-spacing:0px;fill:#57cdff;fill-opacity:1;stroke:none;stroke-width:0.26458332"
         id="path4532"
         inkscape:connector-curvature="0" />
    </g>
  </g>
</svg>
