<svg xmlns="http://www.w3.org/2000/svg" viewBox="0 0 1078.59 174.81"><defs><style>.cls-1{fill:#4180a7;}</style></defs><title>Recurso 1</title><g id="Capa_2" data-name="Capa 2"><g id="Capa_1-2" data-name="Capa 1"><path class="cls-1" d="M164.36,97.55V152H124.93V104.35c0-11.86-4.36-16.4-10.65-16.4-7,0-12.38,4.71-12.38,17.45V152H62.46V104.35c0-11.86-4-16.4-10.64-16.4-7,0-12.39,4.71-12.39,17.45V152H0V56.54H37.51v8.9C44.67,58.29,54.09,54.8,64.56,54.8c12.39,0,23.2,4.53,29.83,14.48C102.07,60,113.24,54.8,126.32,54.8,148,54.8,164.36,67.54,164.36,97.55Z"/><path class="cls-1" d="M275.85,100.69V152H239.2V139.42c-4.53,9.6-13.6,14.31-27,14.31-23.38,0-35.42-13.26-35.42-29.66,0-18.5,14-28.79,43.62-28.79h15.88c-1.22-7.33-6.81-11.17-18-11.17-8.55,0-18.15,2.79-24.43,7.5l-12.56-26c11.16-7,28.09-10.82,42.92-10.82C257,54.8,275.85,68.93,275.85,100.69Zm-39.44,20.24V114.3h-9.77c-8.37,0-12,2.79-12,8,0,4.36,3.49,7.68,9.43,7.68A12.47,12.47,0,0,0,236.41,120.93Z"/><path class="cls-1" d="M361.34,54.8V89.69a55.05,55.05,0,0,0-8.73-.69c-11.86,0-20.24,5.41-20.24,20.59V152H292.94V56.54h37.51v10.3C337.43,58.81,348.08,54.8,361.34,54.8Z"/><path class="cls-1" d="M418.21,122.67l-6.28,6.81V152H372.5V22.52h39.43V84.29l27.39-27.75h46.59L446.48,97.89,489.05,152H441.42Z"/><path class="cls-1" d="M593.56,113.42h-66.3c2.79,7.33,9.42,11.17,19.19,11.17,8.73,0,13.61-2.27,19.89-7l20.59,20.76c-9.25,10.12-22.68,15.36-41.7,15.36-35.07,0-57.75-21.11-57.75-49.55,0-29,23.2-49.38,54.09-49.38,28.26,0,52.52,17.1,52.52,49.38C594.09,107,593.74,110.63,593.56,113.42Zm-67-19h30.71c-1.57-8-7.33-12.74-15.35-12.74C533.72,81.67,528.13,86.38,526.56,94.41Z"/><path class="cls-1" d="M620.19,0V61.78h13V35.08H672.6v26.7h19.54V90.57H672.6v24.08c0,5.93,3.49,9.24,8.2,9.24a16.06,16.06,0,0,0,8.9-2.62l9.42,27.4c-6.1,3.49-15,5.06-24.25,5.06-26.35,0-41.7-12.39-41.7-38.74V90.57h-13v84.24h458.4V0ZM807.47,113.42h-66.3c2.79,7.33,9.42,11.17,19.19,11.17,8.73,0,13.61-2.27,19.89-7l20.59,20.76c-9.25,10.12-22.68,15.36-41.7,15.36-35.07,0-57.75-21.11-57.75-49.55,0-29,23.2-49.38,54.09-49.38,28.26,0,52.51,17.1,52.51,49.38C808,107,807.65,110.63,807.47,113.42Zm64,9.6c6.81,0,12.56-3.66,16.58-12.56l30.53,15c-6.28,17.63-23.73,28.27-46.93,28.27-33,0-56.36-20.42-56.36-49.55,0-29,23.38-49.38,56.36-49.38,23.2,0,40.65,10.64,46.93,28.26l-30.53,15c-4-8.9-9.77-12.56-16.58-12.56-8.9,0-16.23,6.28-16.23,18.67C855.27,116.74,862.6,123,871.5,123Zm161.56,29H993.63V104.35c0-11.86-4.53-16.4-11.69-16.4-8,0-14.83,5.06-14.83,19.19V152H927.68V22.52h39.43v41.7c7.33-6.28,16.58-9.42,26.87-9.42,22,0,39.08,12.74,39.08,42.75Z"/></g></g></svg>